<?xml version="1.0" standalone="no"?>
<!DOCTYPE svg PUBLIC "-//W3C//DTD SVG 20010904//EN"
 "http://www.w3.org/TR/2001/REC-SVG-20010904/DTD/svg10.dtd">
<svg version="1.0" xmlns="http://www.w3.org/2000/svg"
 width="92.000000pt" height="111.000000pt" viewBox="0 0 92.000000 111.000000"
 preserveAspectRatio="xMidYMid meet">
<metadata>
Created by potrace 1.10, written by Peter Selinger 2001-2011
</metadata>
<g transform="translate(0.000000,111.000000) scale(0.050000,-0.050000)"
fill="#2b8598" stroke="none">
<path d="M736 2021 c-137 -27 -396 -192 -396 -253 0 -9 -19 -36 -42 -61 -77
-81 -114 -338 -77 -534 38 -204 168 -371 367 -473 81 -42 462 -40 532 1 189
113 311 254 346 399 54 230 24 515 -66 610 -22 23 -40 49 -40 58 0 124 -417
293 -624 253z m250 -100 c103 -24 294 -152 294 -197 0 -11 12 -24 27 -30 84
-32 141 -387 85 -523 -18 -42 -32 -91 -32 -110 0 -40 -207 -261 -244 -261 -14
0 -53 -15 -86 -34 -78 -43 -279 -43 -360 1 -33 18 -72 33 -86 33 -36 0 -244
220 -244 259 0 17 -14 67 -29 111 -150 414 244 851 675 751z"/>
<path d="M800 1620 c0 -179 0 -180 50 -180 50 0 50 1 50 180 0 179 0 180 -50
180 -50 0 -50 -1 -50 -180z"/>
<path d="M700 1650 c-14 -16 -33 -30 -44 -30 -68 0 -144 -155 -145 -300 -3
-355 434 -494 621 -197 106 167 46 414 -127 521 l-65 40 0 -62 c0 -42 10 -62
30 -62 17 0 30 -8 30 -17 0 -9 18 -38 40 -63 41 -47 57 -242 25 -292 -142
-218 -454 -128 -454 130 0 117 62 238 124 241 28 1 35 121 7 121 -9 0 -28 -13
-42 -30z"/>
<path d="M291 498 c22 -35 -34 -198 -78 -229 -39 -27 -36 -29 48 -29 55 0 79
7 63 17 -17 11 -22 35 -13 70 15 60 39 68 64 22 14 -24 23 -15 40 42 22 71 22
72 -16 38 -47 -42 -62 -33 -46 27 12 45 107 66 107 24 0 -11 9 -20 20 -20 11
0 20 14 20 30 0 23 -26 30 -111 30 -75 0 -107 -7 -98 -22z"/>
<path d="M566 435 c-34 -47 -86 -110 -116 -140 l-55 -55 53 0 c33 0 49 8 41
21 -17 29 28 79 72 79 54 0 70 -42 28 -73 -33 -24 -27 -27 52 -27 56 0 79 7
62 18 -15 9 -31 70 -37 139 -14 146 -21 149 -100 38z"/>
<path d="M829 453 c-132 -132 -46 -277 114 -191 105 56 123 98 42 98 -53 -1
-66 -6 -46 -19 41 -26 -11 -85 -67 -77 -64 9 -65 97 -1 173 61 73 120 82 140
20 10 -33 17 -36 31 -15 64 102 -114 110 -213 11z"/>
<path d="M1152 427 c15 -51 28 -117 28 -145 1 -49 6 -46 92 48 50 55 86 84 80
63 -7 -20 -12 -45 -12 -55 0 -10 -18 -36 -40 -58 -40 -40 -40 -40 31 -40 46 0
67 8 58 22 -22 35 34 198 78 229 41 28 40 29 -18 28 -46 0 -73 -20 -125 -90
-76 -103 -104 -100 -104 12 0 70 -5 79 -48 79 -48 0 -48 0 -20 -93z"/>
</g>
</svg>
